<?xml version="1.0" standalone="no"?>
<!DOCTYPE svg PUBLIC "-//W3C//DTD SVG 20010904//EN"
 "http://www.w3.org/TR/2001/REC-SVG-20010904/DTD/svg10.dtd">
<svg version="1.0" xmlns="http://www.w3.org/2000/svg"
 width="656.000000pt" height="656.000000pt" viewBox="0 0 656.000000 656.000000"
 preserveAspectRatio="xMidYMid meet">
<metadata>
Created by potrace 1.14, written by Peter Selinger 2001-2017
</metadata>
<g transform="translate(0.000000,656.000000) scale(0.100000,-0.100000)"
fill="#000000" stroke="none">
<path d="M1 3273 l2 -3278 18 550 c10 303 20 564 24 582 9 48 39 62 117 54 36
-4 167 -6 290 -5 255 2 263 0 272 -71 13 -91 19 -115 27 -115 5 0 9 6 10 13 0
6 2 21 4 32 2 11 7 44 11 74 11 80 52 112 100 76 10 -8 39 -15 64 -15 25 0 60
-4 79 -10 33 -9 162 -15 606 -25 278 -7 313 -11 343 -41 21 -20 22 -23 5 -27
-12 -3 -8 -5 10 -6 15 0 27 -4 27 -8 0 -5 19 -9 43 -11 58 -4 75 -10 80 -30 4
-16 5 -16 6 1 2 26 61 24 61 -3 0 -11 -4 -20 -10 -20 -5 0 -10 -4 -10 -10 0
-5 16 -10 35 -10 23 0 35 -5 35 -14 0 -8 7 -17 16 -20 9 -4 14 -13 10 -22 -3
-8 -2 -12 4 -9 6 3 10 1 10 -4 0 -6 7 -11 15 -11 9 0 12 -6 9 -15 -4 -8 -10
-15 -16 -15 -5 0 -6 5 -2 12 4 7 3 8 -5 4 -6 -4 -9 -11 -6 -16 3 -5 -36 -48
-87 -97 -50 -48 -112 -108 -137 -132 -100 -95 -195 -163 -310 -220 -107 -54
-227 -94 -265 -88 -38 5 -242 -57 -271 -83 -17 -15 -128 -49 -440 -132 -90
-25 -225 -72 -264 -93 -23 -12 21 -14 362 -15 l387 0 -4 22 c-33 160 -38 200
-29 214 10 14 220 77 232 70 5 -3 12 -27 15 -53 4 -27 14 -94 23 -151 l16
-102 2103 0 c1157 0 2104 2 2104 5 0 13 -214 109 -305 137 -423 131 -984 339
-1017 378 -9 11 -36 36 -60 56 -72 60 -178 166 -178 179 0 6 -9 20 -20 30 -11
10 -20 26 -20 37 0 10 -6 17 -12 16 -9 -2 -13 9 -12 30 0 17 -4 32 -8 32 -4 0
-8 7 -8 15 0 8 9 15 20 15 11 0 20 -4 20 -10 0 -5 9 -10 20 -10 11 0 20 5 20
10 0 6 12 10 28 10 15 0 34 5 42 11 12 9 12 10 -4 5 -16 -6 -17 -4 -6 9 7 8
19 15 26 15 8 0 14 9 14 20 0 13 7 20 19 20 11 0 22 6 24 13 4 9 6 9 6 -1 1
-8 9 -5 24 8 l22 21 3 -20 c4 -28 42 -29 42 -1 0 15 7 20 26 20 29 0 63 16 84
40 19 22 69 27 375 40 252 11 452 30 608 56 52 9 87 -15 87 -60 0 -47 11 -96
21 -96 5 0 9 9 9 21 0 11 5 40 11 64 15 61 4 59 430 70 l226 6 16 -38 c20 -46
44 -433 53 -865 l6 -288 104 0 104 0 0 3275 0 3275 -765 0 -765 0 0 -80 c0
-72 -2 -80 -19 -80 -12 0 -18 7 -17 17 0 10 -7 19 -16 21 -16 3 -18 -7 -18
-97 0 -61 4 -101 10 -101 6 0 10 -27 9 -62 0 -48 -2 -58 -9 -40 -12 30 -30 28
-30 -3 0 -14 5 -25 10 -25 6 0 10 -7 10 -15 0 -8 5 -15 10 -15 6 0 10 -18 10
-40 0 -22 -4 -40 -10 -40 -5 0 -10 -9 -10 -20 0 -13 -7 -20 -20 -20 -13 0 -20
-7 -20 -20 0 -22 15 -27 24 -7 5 10 7 10 12 0 3 -7 14 -13 25 -13 12 0 19 -7
19 -19 0 -11 10 -22 23 -26 13 -4 17 -8 10 -12 -7 -2 -13 -11 -13 -19 0 -8 -4
-14 -10 -14 -5 0 -10 7 -10 16 0 13 -7 15 -30 11 -19 -4 -34 -1 -44 8 -19 20
-32 19 -16 0 15 -18 14 -20 -24 -29 -26 -6 -28 -5 -17 8 8 9 11 17 7 17 -3 1
-10 3 -16 4 -5 1 -14 3 -19 4 -5 0 -8 7 -7 14 0 8 -19 30 -42 50 -24 21 -41
38 -38 38 24 5 35 2 61 -17 30 -22 49 -21 72 2 24 23 15 44 -17 44 -16 0 -30
-5 -30 -11 0 -5 -5 -7 -12 -3 -16 10 -98 12 -92 2 12 -19 -10 -6 -35 21 -23
25 -25 30 -11 40 12 9 12 9 -4 4 -14 -5 -17 -3 -12 6 6 9 1 12 -16 10 -16 -3
-52 16 -112 56 -49 33 -95 65 -104 70 -9 6 -21 13 -26 18 -36 25 -88 57 -95
57 -10 0 -102 70 -118 90 -7 8 -20 30 -29 49 -9 19 -30 45 -45 59 -16 13 -29
28 -29 32 0 5 -11 21 -25 35 -24 23 -33 25 -112 25 l-85 0 16 -22 c9 -13 24
-39 34 -58 9 -19 22 -38 27 -42 15 -12 3 -10 -123 18 -133 30 -400 44 -487 26
-107 -22 -256 -72 -275 -92 -18 -20 -72 -50 -80 -45 -5 3 -10 17 -10 30 0 13
-4 25 -10 27 -5 2 -13 38 -16 81 l-7 77 -58 0 c-36 0 -59 -4 -59 -11 0 -12 67
-148 82 -166 8 -9 6 -13 -4 -13 -8 0 -18 3 -21 7 -20 19 -204 -3 -357 -44 -52
-14 -103 -26 -112 -26 -10 -1 -18 -4 -18 -7 0 -5 -49 -30 -130 -68 -19 -9 -53
-28 -75 -42 -22 -15 -60 -38 -85 -51 -25 -13 -52 -32 -61 -41 -9 -10 -20 -18
-23 -18 -10 0 -100 -62 -104 -72 -2 -4 -9 -8 -16 -8 -8 0 -25 -12 -39 -26 -16
-16 -31 -23 -39 -18 -7 4 -10 4 -6 -1 10 -10 -21 -34 -45 -35 -9 0 -16 -3 -16
-7 4 -25 -4 -33 -33 -34 -18 0 -28 -3 -21 -5 8 -4 5 -12 -8 -27 -62 -67 -95
-97 -106 -97 -7 0 -13 -4 -13 -9 0 -14 -64 -33 -86 -25 -14 4 -15 3 -5 -4 11
-8 11 -11 0 -18 -43 -27 -270 -46 -284 -24 -3 6 -15 10 -26 10 -10 0 -19 4
-19 9 0 5 -8 7 -18 4 -16 -4 -122 42 -122 53 0 3 5 2 10 -1 6 -4 10 7 10 24 0
29 2 31 39 31 l39 0 1 70 c0 39 -2 70 -5 70 -16 0 -34 -33 -34 -64 0 -29 -4
-36 -20 -36 -27 0 -27 50 0 70 15 11 20 26 20 62 0 52 8 59 30 28 8 -11 22
-20 32 -20 16 0 18 -11 18 -110 0 -103 1 -110 20 -110 19 0 20 8 22 243 3 198
5 241 17 239 17 -4 40 27 41 56 0 12 5 22 10 22 6 0 10 18 10 40 0 37 2 40 28
40 35 0 52 35 52 107 l0 53 -65 0 -64 0 -4 -82 -3 -83 -2 83 -2 82 -610 0
-610 0 1 -3277z m1339 3203 c0 -19 -4 -38 -10 -41 -6 -4 -10 10 -10 34 0 23 5
41 10 41 6 0 10 -15 10 -34z m-180 -306 c0 -53 -2 -60 -20 -60 -18 0 -20 7
-20 60 0 53 2 60 20 60 18 0 20 -7 20 -60z m3990 -100 c6 0 10 -36 10 -80 0
-75 -1 -80 -21 -80 -19 0 -21 4 -15 38 3 20 7 93 8 162 2 100 3 108 5 43 2
-46 8 -83 13 -83z m-3990 -50 c0 -5 -9 -10 -20 -10 -11 0 -20 5 -20 10 0 6 9
10 20 10 11 0 20 -4 20 -10z m3695 -69 c3 -5 1 -12 -5 -16 -5 -3 -10 1 -10 9
0 18 6 21 15 7z m135 -141 c17 -24 61 -26 94 -5 22 15 62 15 86 0 5 -3 10 -17
10 -31 0 -17 -5 -24 -20 -24 -11 0 -20 -4 -20 -10 0 -5 9 -10 20 -10 11 0 20
-4 20 -10 0 -5 -13 -10 -30 -10 -21 0 -30 -5 -30 -16 0 -10 -6 -14 -15 -11 -8
4 -17 1 -21 -4 -3 -6 -17 -9 -30 -6 -14 2 -27 0 -30 -4 -11 -19 -25 -9 -14 10
13 25 13 31 0 31 -5 0 -10 -7 -10 -15 0 -12 -11 -7 -40 16 -22 18 -40 37 -40
43 0 6 -9 17 -20 24 -11 7 -20 19 -20 28 0 11 6 13 20 9 11 -4 20 -2 20 4 0
19 55 12 70 -9z m240 6 c0 -12 -6 -13 -30 -5 -16 6 -30 13 -30 15 0 2 14 4 30
4 20 0 30 -5 30 -14z m-4215 -56 c3 -5 -1 -10 -9 -10 -9 0 -16 5 -16 10 0 6 4
10 9 10 6 0 13 -4 16 -10z m4226 -142 c1 -159 0 -182 -12 -186 -5 -2 -6 -9 -3
-14 5 -7 2 -8 -5 -4 -7 5 -10 10 -7 13 3 3 1 14 -5 25 -6 11 -13 17 -16 14 -5
-5 -36 30 -39 44 -4 23 -19 40 -30 36 -17 -7 -18 16 -2 32 9 9 7 11 -9 8 -13
-3 -30 5 -44 20 -19 20 -20 24 -6 24 10 0 17 8 17 20 0 22 20 26 50 10 15 -8
17 -6 13 10 -3 11 0 20 6 20 6 0 11 -13 11 -30 0 -27 3 -30 30 -30 26 0 30 3
30 29 0 16 -6 32 -12 34 -10 4 -9 8 2 17 11 9 12 13 3 17 -20 8 -15 23 7 23
19 0 20 -7 21 -132z m-3650 53 c-14 -26 -30 -43 -46 -47 -13 -3 -23 -10 -22
-15 1 -5 -11 -17 -28 -27 -16 -9 -36 -24 -45 -33 -8 -8 -41 -35 -72 -58 -53
-39 -77 -64 -45 -45 6 4 -4 -8 -23 -27 -19 -19 -37 -34 -40 -33 -7 2 -24 -19
-27 -33 -1 -6 -18 -28 -38 -48 -19 -21 -35 -41 -35 -46 0 -4 -6 -14 -12 -21
-31 -32 -78 -109 -109 -175 -18 -39 -37 -69 -43 -66 -5 3 -6 1 -2 -5 4 -7 1
-26 -7 -44 -15 -33 -28 -68 -29 -78 0 -3 -5 -16 -10 -30 -34 -89 -42 -179 -44
-455 0 -154 -4 -289 -9 -300 -4 -11 -28 -48 -52 -82 -48 -69 -109 -191 -118
-238 -5 -29 -5 -29 6 -5 45 99 82 170 95 181 13 10 13 8 4 -16 -6 -15 -10 -96
-10 -179 0 -154 12 -231 46 -298 9 -16 13 -40 10 -52 -7 -27 -77 -135 -103
-159 -22 -19 -35 -12 -47 31 -4 12 -11 22 -16 22 -5 0 -2 -16 6 -36 8 -20 13
-43 10 -51 -16 -39 -167 -69 -217 -42 -11 5 -28 9 -37 7 -12 -2 -5 -9 20 -21
45 -21 157 -28 227 -14 47 10 53 9 71 -11 12 -12 26 -22 32 -22 6 0 1 11 -12
25 -13 14 -22 26 -19 28 2 2 20 13 40 25 19 12 44 31 55 43 42 47 51 43 52
-22 1 -83 19 -163 43 -193 24 -31 12 -34 -24 -6 -32 26 -45 26 -22 0 10 -11
23 -20 30 -20 7 0 37 -24 67 -54 47 -47 57 -62 63 -103 3 -26 18 -72 31 -101
l25 -53 -20 -28 c-27 -38 -87 -90 -117 -101 -13 -5 -24 -15 -24 -21 0 -18 87
-4 164 27 l67 27 30 -34 30 -34 -26 40 -26 40 28 22 c15 13 33 23 39 23 6 0
25 -18 42 -39 17 -21 51 -48 75 -60 41 -20 46 -20 80 -6 47 20 117 19 145 -1
13 -9 25 -14 26 -13 2 2 -5 29 -15 59 -18 55 -28 66 -113 128 -41 29 -46 37
-46 71 0 21 5 52 11 70 9 24 8 43 -1 77 -7 24 -10 47 -7 50 3 3 25 -29 48 -73
51 -93 161 -207 233 -242 36 -18 70 -25 125 -27 66 -3 71 -2 33 6 -71 15 -153
89 -217 195 -72 120 -142 394 -152 591 -5 101 -4 117 20 190 15 43 36 117 47
164 34 142 73 519 52 506 -15 -9 -80 21 -92 43 -8 17 -14 18 -39 8 -37 -14
-79 5 -87 39 -4 14 -16 25 -33 29 -15 3 -40 16 -55 28 -19 15 -38 20 -66 18
-30 -2 -41 2 -49 17 -10 19 -12 19 -56 3 l-46 -16 -29 32 c-18 20 -35 30 -47
27 -35 -8 -46 11 -47 80 -1 74 14 99 62 99 19 0 32 7 38 21 12 29 34 26 53 -6
18 -29 66 -71 95 -82 13 -4 27 0 42 15 28 27 52 19 67 -21 10 -27 16 -30 52
-30 45 0 65 -13 65 -43 0 -12 6 -17 18 -15 26 4 52 -20 52 -48 0 -29 14 -38
39 -25 14 8 29 7 56 -5 27 -11 40 -12 50 -4 10 8 19 8 35 0 12 -7 25 -8 29 -3
4 4 25 31 47 58 21 28 41 52 44 55 3 3 23 27 45 55 150 187 452 482 483 470 7
-2 11 -1 7 4 -5 10 45 55 53 47 5 -6 -40 -90 -50 -94 -5 -2 -8 -9 -8 -16 0 -7
-18 -51 -39 -97 -39 -82 -111 -285 -111 -309 0 -7 19 25 43 71 101 195 221
348 381 484 71 60 157 118 164 110 3 -3 1 -5 -4 -5 -5 0 -8 -24 -6 -52 5 -88
-49 -296 -111 -427 -42 -88 -108 -192 -160 -249 l-42 -46 55 38 c140 98 316
310 415 499 22 42 42 77 45 77 3 0 2 -51 -2 -112 -14 -222 -92 -412 -240 -583
-45 -53 -42 -52 36 10 46 38 143 155 198 240 45 70 116 227 143 315 15 47 29
92 32 100 3 8 16 -42 28 -112 44 -245 104 -409 186 -501 23 -26 43 -46 45 -44
2 2 -9 33 -24 68 -56 125 -92 314 -92 484 0 66 3 130 6 143 6 20 10 15 32 -35
59 -132 243 -353 369 -443 l48 -34 -56 64 c-82 95 -137 180 -179 278 -32 74
-71 218 -70 256 1 6 18 -8 38 -31 68 -76 204 -182 293 -228 108 -56 191 -82
289 -91 82 -7 178 -51 187 -85 3 -10 28 -26 64 -39 32 -12 63 -28 69 -35 16
-19 66 -164 93 -272 29 -112 47 -222 47 -284 l0 -43 -37 35 c-111 105 -232
173 -365 204 -92 22 -232 19 -310 -5 -91 -28 -177 -94 -154 -117 4 -4 38 3 77
16 125 40 318 38 445 -5 81 -27 188 -81 269 -136 l77 -51 -7 -65 c-4 -36 -11
-77 -17 -92 -8 -22 -7 -23 6 -10 8 8 24 38 34 65 17 41 24 50 42 47 18 -2 21
1 14 15 -10 20 -9 103 1 233 7 83 8 84 24 60 9 -13 38 -50 64 -81 26 -32 56
-82 66 -111 10 -29 33 -84 50 -121 17 -38 31 -71 31 -74 0 -2 -9 -1 -20 2 -23
7 -25 2 -8 -28 15 -28 29 -290 16 -298 -7 -4 -7 -33 0 -80 5 -41 8 -76 6 -78
-2 -2 -14 3 -26 11 l-23 15 -1 -198 -1 -198 33 55 c71 118 134 174 196 174 75
0 145 -54 176 -135 15 -39 32 -169 33 -253 1 -53 3 -60 9 -35 4 17 19 51 33
76 15 24 35 66 45 93 l20 49 12 -40 c18 -60 25 -246 11 -302 -12 -47 -49 -130
-73 -165 -7 -9 -10 -20 -6 -23 7 -7 89 71 112 108 9 16 22 25 28 21 7 -4 8 -3
4 4 -4 7 0 26 8 44 26 55 46 158 52 263 5 85 3 113 -17 185 -27 101 -28 229
-2 244 18 10 110 102 137 137 24 32 60 112 80 180 20 65 32 324 16 334 -5 3
-10 23 -10 43 0 46 -20 104 -68 202 -35 71 -37 80 -34 155 4 80 3 81 -51 191
-29 60 -56 130 -60 153 -3 24 -11 47 -18 51 -6 5 -10 14 -7 21 8 21 9 29 2 28
-13 -2 -24 27 -24 64 0 23 -4 36 -10 32 -6 -3 -7 1 -4 9 3 9 1 16 -5 16 -5 0
-26 33 -46 73 -20 39 -41 76 -46 81 -5 6 -9 22 -9 37 0 15 -7 29 -15 33 -8 3
-15 13 -14 23 0 16 1 15 9 -2 6 -15 8 -8 8 25 -1 25 2 64 6 88 5 28 4 42 -3
42 -6 0 -11 18 -11 40 0 22 5 40 10 40 6 0 10 -4 10 -10 0 -15 30 -12 31 3 0
10 2 10 6 0 2 -7 10 -13 17 -13 8 0 11 -10 8 -30 -3 -18 0 -30 7 -30 6 0 11
-9 11 -20 0 -17 7 -20 40 -20 33 0 40 -3 40 -20 0 -15 7 -20 28 -20 18 0 23
-3 14 -9 -11 -7 -11 -11 2 -24 9 -8 16 -21 16 -27 0 -20 28 -40 57 -40 30 0
53 -33 53 -77 0 -22 3 -23 75 -23 68 0 75 -2 75 -20 0 -16 -7 -20 -30 -20
l-30 0 0 -60 c0 -33 -4 -60 -10 -60 -5 0 -10 -9 -10 -20 0 -11 5 -20 10 -20 6
0 10 -8 10 -19 0 -14 10 -20 41 -24 47 -6 65 -2 73 19 3 9 1 12 -4 9 -6 -3
-10 -1 -10 6 0 6 8 9 20 6 11 -3 23 -1 26 4 3 5 10 7 15 3 13 -8 38 25 39 49
0 10 16 33 35 53 19 19 35 39 35 44 0 5 16 25 35 44 19 20 35 45 35 56 0 25
22 50 44 50 9 0 16 5 16 10 0 6 7 10 16 10 9 0 29 14 45 31 32 35 30 38 45
-66 4 -27 8 -52 9 -55 3 -10 15 -79 36 -205 21 -127 21 -135 6 -265 -38 -319
-46 -401 -52 -512 -6 -107 -9 -118 -26 -118 -12 0 -19 7 -19 20 0 13 -7 20
-20 20 -22 0 -27 -28 -10 -60 7 -13 7 -21 0 -25 -6 -3 -10 -50 -10 -106 l0
-99 39 0 40 0 1 -612 c0 -337 3 -664 7 -726 5 -90 3 -116 -7 -122 -11 -7 -11
-15 0 -49 10 -30 11 -73 6 -168 -4 -71 -7 -228 -6 -351 1 -253 12 -227 -99
-216 -52 6 -61 10 -61 27 0 14 -5 18 -20 14 -10 -3 -19 -2 -18 2 4 37 -4 61
-22 61 -11 0 -20 5 -20 10 0 6 -8 10 -19 10 -12 0 -20 9 -23 23 -4 20 -1 23
19 19 21 -4 23 -1 23 32 0 39 -9 43 -54 26 -14 -5 -26 -16 -26 -25 0 -8 -4
-15 -10 -15 -5 0 -10 5 -10 10 0 6 -4 10 -10 10 -14 0 -12 -27 3 -33 6 -3 -20
-6 -60 -6 -39 -1 -73 3 -75 8 -1 6 -65 13 -141 17 -76 4 -133 10 -127 14 7 4
-12 5 -41 2 -45 -4 -51 -3 -46 12 4 10 1 16 -9 16 -8 0 -12 5 -8 11 4 8 0 8
-15 0 -16 -9 -27 -8 -50 4 -17 8 -39 15 -51 15 -12 0 -35 7 -51 16 -42 21
-148 16 -142 -7 4 -13 -4 -18 -37 -21 -44 -4 -45 -3 -83 78 -28 60 -124 125
-232 157 -42 12 -46 15 -27 21 24 8 52 53 52 85 0 45 10 52 60 45 66 -9 71 -6
185 117 88 94 117 129 109 129 -5 0 -52 -48 -104 -107 -52 -58 -108 -111 -125
-118 -23 -10 -51 -11 -121 -2 -50 5 -98 8 -105 5 -8 -3 -45 -57 -83 -119 -86
-141 -91 -149 -174 -232 -73 -75 -351 -265 -552 -379 -150 -85 -373 -186 -525
-236 -25 -9 -26 -11 -8 -11 13 -1 67 17 120 40 54 22 106 43 116 46 10 3 86
39 169 80 83 40 152 72 155 70 2 -2 -1 -17 -7 -33 -33 -87 -42 -171 -41 -379
1 -116 6 -227 10 -247 11 -46 -7 -78 -75 -135 -90 -75 -203 -121 -362 -148
-115 -20 -139 -28 -179 -67 l-32 -31 -35 30 c-19 17 -60 40 -91 52 -31 12
-102 42 -158 67 -56 25 -133 59 -172 77 -38 17 -97 47 -130 67 -68 42 -65 31
-46 183 18 143 19 472 1 519 -8 21 -11 40 -8 43 3 4 60 -21 127 -54 67 -33
121 -56 121 -50 0 5 -12 14 -27 20 -70 26 -377 188 -467 246 -168 108 -367
330 -495 550 -17 29 -42 60 -56 69 -23 15 -29 15 -87 -4 -35 -11 -77 -26 -95
-33 -25 -10 -39 -10 -72 -1 -39 12 -74 47 -184 182 -40 49 -21 16 27 -49 100
-134 163 -171 239 -142 21 8 26 5 44 -32 12 -23 44 -70 72 -104 28 -35 48 -63
45 -63 -12 0 91 -77 129 -97 31 -15 43 -31 63 -79 31 -75 31 -72 21 -71 -5 1
-15 -9 -22 -23 -13 -24 -16 -25 -107 -21 -51 1 -94 7 -96 12 -2 5 -25 9 -52 9
-29 0 -50 5 -54 13 -3 8 -8 7 -16 -6 -6 -9 -15 -15 -21 -12 -5 4 -9 1 -9 -4 0
-6 -6 -11 -14 -11 -8 0 -16 -7 -20 -15 -8 -22 -32 -18 -60 10 -14 14 -37 25
-51 25 -16 0 -25 6 -25 15 0 20 -73 20 -90 0 -8 -9 -22 -12 -41 -8 -22 4 -29
2 -29 -11 0 -13 -13 -16 -79 -16 -44 0 -81 4 -83 8 -1 5 -20 12 -40 15 -29 4
-38 2 -38 -9 0 -8 -7 -14 -16 -14 -8 0 -12 5 -9 10 3 5 1 10 -4 10 -6 0 -11
-4 -11 -10 0 -5 -15 -10 -34 -10 -25 0 -35 -5 -39 -20 -4 -17 -14 -20 -66 -20
-34 0 -61 4 -61 9 0 5 -9 11 -20 14 -13 3 -20 0 -20 -9 0 -8 -8 -15 -17 -15
-10 -1 -27 -3 -38 -4 -11 -1 -31 -2 -45 -3 -20 -2 -22 -4 -10 -12 12 -8 12
-12 2 -18 -7 -5 -10 -16 -7 -24 6 -14 -5 -17 -67 -21 -40 -2 -91 -9 -113 -15
-25 -7 -41 -7 -43 -2 -5 14 -62 13 -62 -1 0 -6 -14 -9 -33 -8 -19 2 -43 -4
-57 -14 -18 -13 -26 -14 -32 -4 -6 9 -8 9 -8 -2 0 -9 -8 -11 -25 -7 -15 4 -25
2 -25 -4 0 -6 -4 -9 -8 -6 -4 3 -26 1 -48 -4 -32 -8 -41 -6 -52 8 -10 13 -12
268 -8 1282 4 1255 1 1443 -29 1675 -26 198 -30 339 -11 455 9 58 21 143 26
190 8 78 22 160 36 203 9 27 32 20 39 -13 4 -16 13 -30 21 -30 8 0 14 -4 14
-10 0 -5 9 -10 20 -10 13 0 20 -7 20 -19 0 -14 6 -19 19 -16 10 2 31 -3 46
-11 15 -8 34 -14 41 -14 8 0 14 -4 14 -10 0 -5 9 -10 20 -10 16 0 20 -7 20
-30 0 -28 2 -30 40 -30 22 0 40 -4 40 -10 0 -5 9 -10 20 -10 11 0 20 -4 20
-10 0 -5 9 -10 20 -10 16 0 20 7 20 30 0 23 4 30 20 30 11 0 20 -4 20 -10 0
-5 9 -10 20 -10 11 0 19 6 17 13 -1 6 6 11 16 9 13 -2 17 4 17 26 0 35 23 48
45 26 13 -14 17 -12 41 11 14 14 30 23 35 20 5 -4 9 -1 9 4 0 6 9 11 20 11 27
0 25 14 -2 28 l-23 11 23 0 c12 1 22 6 22 11 0 6 18 10 40 10 39 0 40 1 40 34
0 19 4 38 10 41 15 9 13 88 -2 82 -10 -3 -12 7 -9 39 2 35 7 44 22 44 12 0 19
7 19 20 0 13 7 20 20 20 13 0 20 -7 20 -20 0 -17 7 -20 40 -20 22 0 40 5 40
11 0 5 4 8 8 5 4 -2 14 -1 22 4 13 8 12 11 -3 22 -15 11 -11 13 30 10 26 -2
53 -8 59 -13 18 -15 233 -3 284 15 25 10 66 24 91 32 26 8 52 21 59 29 22 27
22 9 1 -34z m3368 -26 c46 -23 117 -143 97 -162 -16 -16 -136 129 -136 164 0
17 5 16 39 -2z m-3269 -69 c0 -8 -24 -43 -52 -77 -29 -34 -65 -75 -80 -93 -14
-17 -30 -28 -34 -24 -14 15 30 88 89 148 61 62 77 71 77 46z m3630 -67 c0 -36
-2 -40 -22 -37 -13 2 -22 6 -20 11 1 4 2 21 2 37 0 23 4 30 20 30 17 0 20 -7
20 -41z m-4442 -56 c-2 -11 -14 -19 -31 -21 -22 -3 -27 1 -27 17 0 17 6 21 31
21 24 0 30 -4 27 -17z m4428 -23 c9 0 14 -11 14 -33 0 -18 6 -39 13 -46 10
-11 10 -13 0 -7 -9 5 -13 0 -13 -13 0 -27 -12 -27 -28 -1 -10 17 -10 20 3 20
16 0 19 17 9 44 -3 9 -10 13 -15 10 -5 -3 -8 10 -8 28 1 18 3 25 6 16 2 -10
11 -18 19 -18z m-4506 -20 c0 -13 7 -20 20 -20 11 0 20 -4 20 -10 0 -5 -9 -10
-20 -10 -11 0 -20 -4 -20 -10 0 -5 -9 -10 -20 -10 -17 0 -20 7 -20 40 0 33 3
40 20 40 13 0 20 -7 20 -20z m-80 -10 c0 -5 -4 -10 -10 -10 -5 0 -10 5 -10 10
0 6 5 10 10 10 6 0 10 -4 10 -10z m1460 -58 c-23 -45 -51 -82 -62 -82 -19 0 2
54 35 87 35 37 47 35 27 -5z m2199 -56 c13 -14 25 -43 28 -68 6 -41 5 -42 -12
-28 -10 8 -26 33 -36 55 -31 67 -22 85 20 41z m1461 -86 c0 -5 -9 -10 -20 -10
-11 0 -20 5 -20 10 0 6 9 10 20 10 11 0 20 -4 20 -10z m180 -80 c0 -5 -14 -10
-31 -10 -17 0 -28 4 -24 10 3 6 17 10 31 10 13 0 24 -4 24 -10z m-200 -185 c0
-8 -4 -15 -10 -15 -5 0 -10 7 -10 15 0 8 5 15 10 15 6 0 10 -7 10 -15z m-153
-663 c44 -82 60 -154 70 -307 5 -81 -13 -252 -28 -261 -5 -3 -9 -14 -9 -24 0
-10 -9 -35 -21 -54 -12 -20 -18 -36 -14 -36 4 0 -28 -36 -71 -80 -43 -44 -81
-80 -86 -80 -4 0 -8 18 -8 39 0 27 6 44 18 53 31 22 94 119 115 177 29 84 34
222 11 340 -10 53 -23 99 -29 103 -5 4 -6 8 -2 8 5 0 1 13 -9 28 -14 25 -15
37 -4 100 6 40 15 72 19 72 3 0 25 -35 48 -78z m598 -392 c-3 -5 -10 -10 -16
-10 -5 0 -9 5 -9 10 0 6 7 10 16 10 8 0 12 -4 9 -10z m-4936 -609 c11 -7 12
-22 8 -61 -8 -62 -12 -68 -37 -52 -25 15 -57 16 -66 1 -4 -8 0 -9 15 -4 26 8
70 -23 71 -50 0 -11 -3 -31 -7 -43 -5 -21 -10 -23 -37 -18 -16 4 -43 19 -59
34 -26 24 -28 24 -18 5 12 -24 59 -53 86 -53 28 0 25 -22 -13 -134 -34 -101
-61 -143 -63 -99 0 12 -2 13 -6 5 -3 -8 0 -24 7 -37 10 -19 9 -27 -5 -49 -21
-31 -27 -32 -50 -6 -33 36 -43 114 -34 273 7 134 10 152 36 199 42 79 122 120
172 89z m163 -440 c-5 -15 -9 -44 -7 -66 2 -41 19 -60 98 -111 33 -22 67 -73
67 -101 0 -5 -19 -7 -42 -5 -23 3 -65 -1 -94 -8 -66 -16 -98 -5 -149 51 -42
47 -43 58 -9 90 33 30 104 125 104 138 0 6 8 27 18 47 15 32 17 34 20 15 2
-12 -1 -35 -6 -50z m3287 -777 c17 -4 28 -11 24 -17 -3 -6 -1 -7 6 -3 19 12
99 -42 129 -87 15 -23 30 -43 35 -45 4 -2 7 -16 7 -31 0 -20 -7 -31 -25 -39
-41 -19 -46 -15 -39 27 13 79 -61 151 -188 185 -51 14 -51 15 -17 15 20 1 50
-2 68 -5z m128 -176 c-3 -8 -6 -5 -6 6 -1 11 2 17 5 13 3 -3 4 -12 1 -19z
m-4743 -424 c26 -4 36 -11 36 -25 0 -16 7 -19 41 -19 38 0 41 -2 35 -22 -3
-13 -6 -33 -6 -45 0 -18 -6 -23 -25 -23 -16 0 -25 6 -25 15 0 32 -19 13 -25
-25 -6 -38 -9 -41 -36 -36 -16 2 -27 0 -23 -5 3 -5 -10 -9 -29 -9 -33 0 -34 1
-41 46 -11 86 -8 122 16 144 12 11 28 18 34 16 7 -3 29 -8 48 -12z m106 -14
c0 -5 -4 -10 -10 -10 -5 0 -10 5 -10 10 0 6 5 10 10 10 6 0 10 -4 10 -10z
m6012 -45 c12 -17 6 -95 -7 -95 -7 0 -26 3 -43 6 -28 6 -32 11 -38 50 -10 66
-3 75 43 61 21 -6 41 -16 45 -22z m-2247 -455 c3 -5 1 -10 -4 -10 -6 0 -11 5
-11 10 0 6 2 10 4 10 3 0 8 -4 11 -10z"/>
<path d="M5180 5490 c0 -5 5 -10 11 -10 5 0 7 5 4 10 -3 6 -8 10 -11 10 -2 0
-4 -4 -4 -10z"/>
<path d="M2252 4540 c0 -14 2 -19 5 -12 2 6 2 18 0 25 -3 6 -5 1 -5 -13z"/>
<path d="M2233 4280 c-63 -12 -202 -59 -263 -90 -94 -47 -239 -169 -212 -178
5 -1 40 16 78 39 138 85 277 135 409 149 91 9 290 -4 329 -22 39 -17 55 3 24
32 -49 47 -126 74 -223 76 -49 2 -113 -1 -142 -6z"/>
<path d="M6157 3983 c-4 -3 -7 -15 -7 -25 0 -10 -4 -18 -10 -18 -5 0 -10 -25
-10 -55 0 -54 0 -55 30 -55 17 0 30 1 30 3 -1 14 -29 88 -29 78 -1 -8 -4 -12
-7 -8 -3 3 -1 22 6 42 12 35 10 52 -3 38z m3 -123 c0 -5 -4 -10 -10 -10 -5 0
-10 5 -10 10 0 6 5 10 10 10 6 0 10 -4 10 -10z"/>
<path d="M2397 3863 c18 -2 50 -2 70 0 21 2 7 4 -32 4 -38 0 -55 -2 -38 -4z"/>
<path d="M2231 3829 c-29 -5 -69 -17 -89 -26 -19 -9 -51 -16 -70 -15 -29 2
-33 0 -24 -11 10 -11 2 -22 -37 -55 -48 -41 -92 -54 -117 -34 -5 4 1 -2 13
-13 l23 -21 -26 -27 c-13 -15 -35 -27 -47 -27 -17 0 -19 -2 -8 -9 12 -8 10
-16 -12 -48 -41 -59 -84 -103 -101 -103 -20 0 -20 -9 -2 -24 13 -10 13 -19 0
-74 -11 -46 -12 -75 -5 -105 8 -40 9 -41 10 -9 1 42 14 41 30 -4 7 -19 40 -63
73 -97 33 -34 56 -53 52 -42 -16 46 -16 201 0 258 61 209 202 352 362 365 134
10 214 -24 359 -153 40 -36 76 -65 80 -65 12 0 -3 124 -20 164 -20 48 -19 52
8 31 12 -10 -2 5 -31 33 -29 28 -83 66 -119 83 -58 27 -80 32 -158 35 -49 2
-114 -1 -144 -7z"/>
<path d="M4000 3792 c-79 -21 -152 -61 -156 -84 -1 -10 -11 -30 -21 -45 -33
-48 -56 -105 -60 -153 l-5 -45 49 51 c66 70 108 99 199 135 69 28 86 31 163
27 74 -2 97 -8 154 -36 93 -46 177 -126 217 -208 29 -57 34 -78 37 -162 3 -66
0 -115 -11 -152 -8 -30 -12 -57 -10 -59 7 -7 113 108 130 141 8 16 19 48 23
71 l8 42 16 -35 c20 -45 21 -18 2 46 -14 47 -14 50 5 63 28 19 25 33 -5 25
-21 -5 -28 1 -57 48 -18 29 -33 56 -33 59 0 3 -17 20 -37 38 -40 34 -47 58
-25 80 10 12 8 13 -8 7 -11 -4 -23 -8 -28 -9 -17 -4 -117 79 -113 94 2 11 -4
16 -23 17 -14 0 -53 13 -86 27 -80 36 -228 44 -325 17z"/>
<path d="M706 3679 c-9 -29 -15 -78 -15 -108 l2 -56 8 61 c4 34 13 80 19 104
17 62 4 61 -14 -1z"/>
<path d="M3804 3688 l-19 -23 23 19 c12 11 22 21 22 23 0 8 -8 2 -26 -19z"/>
<path d="M2243 3659 c-94 -22 -183 -149 -203 -290 -12 -81 -5 -159 17 -202 30
-59 143 -161 159 -144 3 3 -2 19 -10 36 -9 16 -16 44 -16 60 0 24 -5 32 -25
37 -28 7 -32 29 -11 57 18 24 24 21 18 -8 -3 -20 0 -25 16 -25 11 0 22 5 24
12 4 12 12 9 58 -17 14 -8 39 -15 56 -15 41 0 114 56 114 87 0 27 12 29 35 6
9 -9 29 -17 43 -18 15 -2 35 -6 44 -10 43 -18 32 166 -17 269 -63 132 -177
195 -302 165z m7 -94 c20 -24 3 -84 -36 -123 -39 -39 -63 -39 -82 1 -15 32 -6
67 30 112 22 28 68 34 88 10z m103 -80 c1 -5 -6 -11 -15 -13 -11 -2 -18 3 -18
13 0 17 30 18 33 0z m24 -93 c21 -50 12 -111 -22 -139 -35 -31 -52 -29 -76 10
-30 48 -22 132 15 164 34 29 61 18 83 -35z"/>
<path d="M4061 3623 c-86 -31 -160 -135 -187 -266 -25 -119 2 -224 77 -299 48
-48 77 -62 65 -32 -3 9 -6 28 -6 44 0 19 -6 29 -20 33 -26 7 -25 21 3 47 l22
21 3 -25 c4 -28 12 -32 29 -15 8 8 21 7 47 -2 31 -11 41 -11 71 4 26 13 41 14
55 7 30 -16 40 -12 40 18 0 26 3 28 43 29 44 2 66 -9 84 -41 10 -18 11 -18 23
3 21 40 24 159 6 231 -50 195 -200 298 -355 243z m25 -108 c10 -15 13 -32 9
-47 -10 -32 -75 -98 -97 -98 -41 0 -53 99 -17 144 28 36 82 36 105 1z m98 -33
c2 -4 1 -14 -4 -21 -11 -19 -41 -6 -34 14 6 16 29 20 38 7z m-18 -90 c21 -14
34 -51 34 -99 0 -57 -21 -93 -55 -93 -34 0 -55 36 -55 93 0 63 23 107 55 107
6 0 15 -4 21 -8z"/>
<path d="M691 3399 c0 -19 5 -43 10 -54 6 -13 7 -4 3 30 -8 60 -14 72 -13 24z"/>
<path d="M2448 3198 c-4 -9 -4 -33 -1 -52 4 -29 0 -43 -22 -72 -33 -44 -27
-53 18 -25 56 35 63 48 39 74 -11 12 -22 38 -24 57 -2 25 -5 30 -10 18z"/>
<path d="M5051 3173 c-16 -20 -35 -59 -42 -87 -6 -28 -16 -60 -21 -71 -9 -20
-9 -20 6 -1 9 11 16 26 16 34 0 12 11 14 58 9 36 -3 48 -2 32 3 -14 4 -37 8
-52 9 -37 1 -36 24 1 83 27 42 34 47 73 51 l43 4 -42 1 c-37 2 -45 -2 -72 -35z"/>
<path d="M4255 3073 c5 -35 2 -40 -31 -65 -29 -22 -48 -28 -88 -28 -37 0 -47
-3 -36 -10 25 -16 67 -11 116 15 26 14 53 25 61 25 16 0 73 40 73 52 0 4 -8 8
-18 8 -10 0 -28 9 -40 20 -32 30 -43 25 -37 -17z"/>
<path d="M5151 3085 c-25 -27 -17 -34 13 -12 11 8 17 19 15 25 -2 6 -14 1 -28
-13z"/>
<path d="M2275 3000 c3 -5 19 -10 35 -10 16 0 32 5 35 10 4 6 -10 10 -35 10
-25 0 -39 -4 -35 -10z"/>
<path d="M4933 2953 c-30 -20 -29 -28 5 -29 62 -4 176 -25 188 -35 19 -15 18
-68 -2 -148 -21 -86 -46 -133 -86 -166 l-33 -27 35 20 c48 28 78 86 100 193
28 133 18 147 -123 164 -34 5 -50 12 -55 25 -6 16 -9 16 -29 3z"/>
<path d="M3210 2944 c0 -8 5 -12 10 -9 6 3 10 10 10 16 0 5 -4 9 -10 9 -5 0
-10 -7 -10 -16z"/>
<path d="M2007 2943 c-12 -12 -7 -22 8 -17 8 4 15 10 15 15 0 11 -14 12 -23 2z"/>
<path d="M4873 2905 c-24 -17 -34 -47 -22 -66 6 -10 9 -7 9 10 0 14 10 35 22
48 25 26 22 29 -9 8z"/>
<path d="M2232 2894 c38 -20 87 -20 123 -1 29 16 28 16 -60 16 -85 0 -89 -1
-63 -15z"/>
<path d="M4027 2879 c14 -14 94 -23 128 -15 48 12 14 26 -63 26 -56 0 -73 -3
-65 -11z"/>
<path d="M4870 2804 c0 -5 7 -18 15 -28 37 -50 10 -127 -70 -201 -18 -16 -36
-43 -40 -59 l-6 -29 31 27 c34 28 51 34 120 39 43 3 42 4 -10 5 -32 1 -67 -4
-84 -13 -44 -23 -43 -19 11 38 60 63 73 85 78 135 2 30 -2 45 -21 67 -13 15
-24 24 -24 19z"/>
<path d="M5262 2745 c-14 -71 -71 -216 -99 -248 -10 -11 -12 -17 -5 -13 41 24
105 177 119 284 9 65 -2 50 -15 -23z"/>
<path d="M1296 2485 c4 -8 11 -15 16 -15 6 0 5 6 -2 15 -7 8 -14 15 -16 15 -2
0 -1 -7 2 -15z"/>
<path d="M3105 2170 c-17 -19 -17 -19 16 -10 19 6 36 10 39 10 7 0 -23 20 -31
20 -3 0 -14 -9 -24 -20z"/>
<path d="M3280 2160 c36 -12 62 -12 55 0 -3 6 -23 10 -43 9 -33 -1 -34 -2 -12
-9z"/>
<path d="M6100 1880 c0 -5 9 -10 20 -10 11 0 20 5 20 10 0 6 -9 10 -20 10 -11
0 -20 -4 -20 -10z"/>
<path d="M6050 1845 c0 -8 7 -15 15 -15 8 0 15 7 15 15 0 8 -7 15 -15 15 -8 0
-15 -7 -15 -15z"/>
<path d="M6060 1780 c0 -5 5 -10 10 -10 6 0 10 5 10 10 0 6 -4 10 -10 10 -5 0
-10 -4 -10 -10z"/>
<path d="M6042 1733 c5 -26 38 -29 38 -4 0 15 -6 21 -21 21 -14 0 -19 -5 -17
-17z"/>
<path d="M2885 1373 c14 -14 192 -83 213 -82 9 0 -8 9 -38 20 -30 11 -77 29
-105 41 -78 31 -81 32 -70 21z"/>
<path d="M3130 1280 c8 -5 30 -10 49 -10 45 0 37 6 -19 14 -31 4 -40 3 -30 -4z"/>
<path d="M1206 3135 c-9 -26 -7 -32 5 -12 6 10 9 21 6 23 -2 3 -7 -2 -11 -11z"/>
<path d="M1200 2859 c-17 -30 -6 -34 14 -4 9 14 12 25 7 25 -6 0 -15 -9 -21
-21z"/>
<path d="M4900 6510 c0 -29 4 -40 15 -40 27 0 52 30 47 56 -6 34 -22 30 -22
-5 0 -17 -4 -33 -10 -36 -6 -4 -10 8 -10 29 0 20 -4 36 -10 36 -5 0 -10 -18
-10 -40z"/>
<path d="M4893 6350 c0 -25 2 -35 4 -22 2 12 2 32 0 45 -2 12 -4 2 -4 -23z"/>
<path d="M4905 5890 c-3 -5 -1 -10 4 -10 6 0 11 5 11 10 0 6 -2 10 -4 10 -3 0
-8 -4 -11 -10z"/>
<path d="M4280 986 c0 -9 5 -16 10 -16 6 0 10 4 10 9 0 6 -4 13 -10 16 -5 3
-10 -1 -10 -9z"/>
<path d="M6172 638 c2 -15 11 -24 26 -26 20 -3 23 0 20 20 -2 15 -11 24 -26
26 -20 3 -23 0 -20 -20z"/>
</g>
</svg>
